<?xml version="1.0" encoding="UTF-8"?>
<svg width="290px" height="250px" viewBox="0 0 290 250" version="1.1" xmlns="http://www.w3.org/2000/svg" xmlns:xlink="http://www.w3.org/1999/xlink">
    <!-- Generator: sketchtool 56 (101010) - https://sketch.com -->
    <title>00CEAB9B-EB0C-4F4F-BE85-83441A8FAB39</title>
    <desc>Created with sketchtool.</desc>
    <g id="Page-1" stroke="none" stroke-width="1" fill="none" fill-rule="evenodd">
        <g id="Error-404-Copy" transform="translate(-158.000000, -248.000000)" fill-rule="nonzero">
            <g id="done2" transform="translate(158.000000, 248.000000)">
                <g id="Group" transform="translate(21.292210, 23.000000)">
                    <path d="M214.292857,0.208007968 L13.607619,0.352709163 C6.34238095,0.361752988 0.434285714,6.26737052 0.443322956,13.5295618 L0.560952381,176.580677 C0.57,183.028924 5.37428571,188.618008 11.7438095,189.585697 C12.3952381,189.685179 13.0738095,189.739442 13.752381,189.739442 L81.012381,189.694223 L81.0214286,205.1049 L69.1780952,205.113944 C63.3061905,205.113944 58.5290476,209.898127 58.5290476,215.76757 L58.5380952,223.047849 C58.5380952,225.22741 60.3204762,227 62.5009524,227 L100.066667,226.972869 L165.480952,226.927649 C167.661429,226.927649 169.434762,225.15506 169.434762,222.966454 L169.425714,215.686175 C169.425714,209.816733 164.639524,205.041594 158.767619,205.050637 L146.924286,205.059681 L146.915238,189.649004 L214.175238,189.603785 C214.85381,189.603785 215.523333,189.549522 216.174762,189.45004 C222.544286,188.473307 227.348571,182.866135 227.339524,176.426932 L227.01381,62.1582072 L227.475238,13.3577291 C227.46619,6.10458167 221.558095,0.208007968 214.292857,0.208007968 Z" id="Path" fill="#ADC0E1"></path>
                    <path d="M4.10761905,13.5295618 C4.10761905,8.14848606 8.47761905,3.7712749 13.8609524,3.7712749 L214.039524,3.62657371 C219.422857,3.62657371 223.801905,7.99474104 223.801905,13.3758167 L223.82,39.3044622 L4.12571429,39.4582072 L4.10761905,13.5295618 Z" id="Path" fill="#FFFFFF"></path>
                    <rect id="Rectangle" fill="#FFFFFF" x="84.432381" y="189.676135" width="59.0628571" height="15.4106773"></rect>
                    <path d="M223.919524,176.426932 C223.919524,181.446255 220.155714,185.624502 215.161429,186.14 C214.826667,186.176175 214.500952,186.185219 214.16619,186.185219 L13.7433333,186.32992 C13.4085714,186.32992 13.0828571,186.311833 12.7571429,186.284701 C7.75380952,185.778247 3.98095238,181.609044 3.98095238,176.589721 L3.97190476,162.146733 L223.910476,161.983944 L223.919524,176.426932 Z" id="Path" fill="#FFFFFF"></path>
                    <rect id="Rectangle" fill="#FFFFFF" x="4.17095238" y="42.7953785" width="219.721429" height="115.607211"></rect>
                    <path d="M166.005714,223.518127 L61.9580952,223.590478 L61.9490476,215.76757 C61.9490476,211.779243 65.1880952,208.53251 69.1780952,208.53251 L158.758571,208.469203 C162.748571,208.469203 165.996667,211.706892 165.996667,215.695219 L166.005714,223.518127 Z" id="Path" fill="#FFFFFF"></path>
                </g>
                <g id="Group" transform="translate(35.292210, 37.000000)" fill="#006AB0">
                    <ellipse id="Oval" cx="7.79342466" cy="8.13333333" rx="7.67589041" ry="7.54666667"></ellipse>
                    <ellipse id="Oval" cx="33.0090411" cy="8.11555556" rx="7.67589041" ry="7.54666667"></ellipse>
                    <ellipse id="Oval" cx="58.2246575" cy="8.09777778" rx="7.67589041" ry="7.54666667"></ellipse>
                </g>
                <path d="M116.639966,85.9358289 L42.9444554,86 C42.028537,86 41.2922105,85.1229947 41.2922105,84.0320856 C41.2922105,82.9411765 42.028537,82.0641711 42.9444554,82.0641711 L116.639966,82 C117.555884,82 118.29221,82.8770053 118.29221,83.9679144 C118.29221,85.0588235 117.546904,85.9358289 116.639966,85.9358289 Z" id="Path" fill="#ADC0E1"></path>
                <path d="M171.633081,113.89418 L42.9513402,114 C42.0316053,114 41.2922105,113.132275 41.2922105,112.05291 C41.2922105,110.973545 42.0316053,110.10582 42.9513402,110.10582 L171.633081,110 C172.552816,110 173.29221,110.867725 173.29221,111.94709 C173.283193,113.026455 172.543799,113.89418 171.633081,113.89418 Z" id="Path" fill="#ADC0E1"></path>
                <path d="M171.633081,101.89418 L42.9513402,102 C42.0316053,102 41.2922105,101.132275 41.2922105,100.05291 C41.2922105,98.973545 42.0316053,98.1058201 42.9513402,98.1058201 L171.633081,98 C172.552816,98 173.29221,98.8677249 173.29221,99.9470899 C173.29221,101.026455 172.543799,101.89418 171.633081,101.89418 Z" id="Path" fill="#ADC0E1"></path>
                <g id="Group" transform="translate(0.292210, 0.000000)" fill="#006AB0">
                    <path d="M30.2354286,15.68 C29.3028571,15.68 28.5531429,14.9302857 28.5531429,13.9977143 L28.5531429,1.68228571 C28.5531429,0.749714286 29.3028571,0 30.2354286,0 C31.168,0 31.9177143,0.749714286 31.9177143,1.68228571 L31.9177143,13.9977143 C31.9177143,14.9302857 31.168,15.68 30.2354286,15.68 Z" id="Path"></path>
                    <path d="M18.3588571,20.032 C17.9291429,20.032 17.4994286,19.8674286 17.1702857,19.5382857 L8.45714286,10.8251429 C7.79885714,10.1668571 7.79885714,9.10628571 8.45714286,8.448 C9.11542857,7.78971429 10.176,7.78971429 10.8342857,8.448 L19.5474286,17.1611429 C20.2057143,17.8194286 20.2057143,18.88 19.5474286,19.5382857 C19.2182857,19.8674286 18.7885714,20.032 18.3588571,20.032 Z" id="Path"></path>
                    <path d="M13.9977143,31.9177143 L1.68228571,31.9177143 C0.749714286,31.9177143 0,31.168 0,30.2354286 C0,29.3028571 0.749714286,28.5531429 1.68228571,28.5531429 L13.9977143,28.5531429 C14.9302857,28.5531429 15.68,29.3028571 15.68,30.2354286 C15.68,31.168 14.9302857,31.9177143 13.9977143,31.9177143 Z" id="Path"></path>
                </g>
                <g id="Group" transform="translate(198.292210, 144.000000)">
                    <circle id="Oval" fill="#FFFFFF" cx="46.1082353" cy="46.2796078" r="43.3121569"></circle>
                    <path d="M46.1082353,91.8286275 C20.9886275,91.8286275 0.559215686,71.3992157 0.559215686,46.2796078 C0.559215686,21.16 20.9886275,0.730588235 46.1082353,0.730588235 C71.2278431,0.730588235 91.6572549,21.16 91.6572549,46.2796078 C91.6572549,71.3992157 71.2188235,91.8286275 46.1082353,91.8286275 Z M46.1082353,4.33843137 C22.9819608,4.33843137 4.16705882,23.1533333 4.16705882,46.2796078 C4.16705882,69.4058824 22.9819608,88.2207843 46.1082353,88.2207843 C69.2345098,88.2207843 88.0494118,69.4058824 88.0494118,46.2796078 C88.0494118,23.1533333 69.2345098,4.33843137 46.1082353,4.33843137 Z" id="Shape" fill="#006AB0"></path>
                    <path d="M37.0886275,61.9827451 L26.7972549,51.6913725 C26.0937255,50.9878431 26.0937255,49.8423529 26.7972549,49.1388235 C27.5007843,48.4352941 28.6462745,48.4352941 29.3498039,49.1388235 L37.0976471,56.8866667 L62.8847059,31.0996078 C63.5882353,30.3960784 64.7337255,30.3960784 65.4372549,31.0996078 C66.1407843,31.8031373 66.1407843,32.9486275 65.4372549,33.6521569 L37.0886275,61.9827451 Z" id="Path" fill="#006AB0"></path>
                </g>
            </g>
        </g>
    </g>
</svg>