<?xml version="1.0" encoding="UTF-8"?>
<svg width="397px" height="329px" viewBox="0 0 397 329" version="1.1" xmlns="http://www.w3.org/2000/svg" xmlns:xlink="http://www.w3.org/1999/xlink">
    <!-- Generator: sketchtool 55.1 (78136) - https://sketchapp.com -->
    <title>F645383A-DA73-450F-8E7A-6D397FCD41D2</title>
    <desc>Created with sketchtool.</desc>
    <g id="Page-1" stroke="none" stroke-width="1" fill="none" fill-rule="evenodd">
        <g id="Error-403" transform="translate(-165.000000, -364.000000)" fill-rule="nonzero">
            <g id="error403-vector" transform="translate(166.000000, 364.000000)">
                <g id="Group" transform="translate(-0.555369, 0.000000)" fill="#006AB0">
                    <path d="M36.8494286,19.11 C35.7128571,19.11 34.7991429,18.1962857 34.7991429,17.0597143 L34.7991429,2.05028571 C34.7991429,0.913714286 35.7128571,0 36.8494286,0 C37.986,0 38.8997143,0.913714286 38.8997143,2.05028571 L38.8997143,17.0597143 C38.8997143,18.1962857 37.986,19.11 36.8494286,19.11 Z" id="Path"></path>
                    <path d="M22.3748571,24.414 C21.8511429,24.414 21.3274286,24.2134286 20.9262857,23.8122857 L10.3071429,13.1931429 C9.50485714,12.3908571 9.50485714,11.0982857 10.3071429,10.296 C11.1094286,9.49371429 12.402,9.49371429 13.2042857,10.296 L23.8234286,20.9151429 C24.6257143,21.7174286 24.6257143,23.01 23.8234286,23.8122857 C23.4222857,24.2134286 22.8985714,24.414 22.3748571,24.414 Z" id="Path"></path>
                    <path d="M17.0597143,38.8997143 L2.05028571,38.8997143 C0.913714286,38.8997143 0,37.986 0,36.8494286 C0,35.7128571 0.913714286,34.7991429 2.05028571,34.7991429 L17.0597143,34.7991429 C18.1962857,34.7991429 19.11,35.7128571 19.11,36.8494286 C19.11,37.986 18.1962857,38.8997143 17.0597143,38.8997143 Z" id="Path"></path>
                </g>
                <g id="Group" transform="translate(26.444631, 28.000000)">
                    <g>
                        <path d="M263.166667,0.122258167 L16.7111111,0.300119522 C7.78888889,0.31123506 0.533333333,7.56968127 0.5444317,16.4954582 L0.688888889,216.89749 C0.7,224.822869 6.6,231.692271 14.4222222,232.881633 C15.2222222,233.003904 16.0555556,233.070598 16.8888889,233.070598 L99.4888889,233.01502 L99.5,251.955896 L84.9555556,251.967012 C77.7444444,251.967012 71.8777778,257.847131 71.8777778,265.061116 L71.8888889,274.009124 C71.8888889,276.687968 74.0777778,278.866614 76.7555556,278.866614 L122.888889,278.833267 L203.222222,278.777689 C205.9,278.777689 208.077778,276.599044 208.077778,273.909084 L208.066667,264.961076 C208.066667,257.747092 202.188889,251.878088 194.977778,251.889203 L180.433333,251.900319 L180.422222,232.959442 L263.022222,232.903865 C263.855556,232.903865 264.677778,232.837171 265.477778,232.7149 C273.3,231.514422 279.2,224.622789 279.188889,216.708526 L278.788889,76.2525896 L279.355556,16.2731474 C279.344444,7.36960159 272.088889,0.111155378 263.166667,0.122258167 Z" id="Path" fill="#ADC0E1"></path>
                        <path d="M5.04444444,16.4954582 C5.04444444,9.88171315 10.4111111,4.50179283 17.0222222,4.50179283 L262.855556,4.32394422 C269.466667,4.32394422 274.844444,9.692749 274.844444,16.306494 L274.866667,48.174741 L5.06666667,48.3637052 L5.04444444,16.4954582 Z" id="Path" fill="#FFFFFF"></path>
                        <rect id="Rectangle" fill="#FFFFFF" x="103.688889" y="232.992789" width="72.5333333" height="18.9408765"></rect>
                        <path d="M274.988889,216.708526 C274.988889,222.877649 270.366667,228.013028 264.233333,228.646614 C263.822222,228.691076 263.422222,228.702191 263.011111,228.702191 L16.8777778,228.88004 C16.4666667,228.88004 16.0666667,228.857809 15.6666667,228.824462 C9.52222222,228.201992 4.88888889,223.077729 4.88888889,216.908606 L4.87777778,199.157092 L274.977778,198.957012 L274.988889,216.708526 Z" id="Path" fill="#FFFFFF"></path>
                        <rect id="Rectangle" fill="#FFFFFF" x="5.12222222" y="52.4653386" width="269.833333" height="142.08992"></rect>
                        <path d="M203.866667,274.587131 L76.0888889,274.676056 L76.0777778,265.061116 C76.0777778,260.159163 80.0555556,256.168685 84.9555556,256.168685 L194.966667,256.090876 C199.866667,256.090876 203.855556,260.070239 203.855556,264.972191 L203.866667,274.587131 Z" id="Path" fill="#FFFFFF"></path>
                    </g>
                    <g transform="translate(16.666667, 16.673307)" fill="#006AB0" id="Oval">
                        <ellipse cx="9.57777778" cy="10.0373307" rx="9.43333333" ry="9.43709163"></ellipse>
                        <ellipse cx="40.5666667" cy="10.0150996" rx="9.43333333" ry="9.43709163"></ellipse>
                        <ellipse cx="71.5555556" cy="9.99286853" rx="9.43333333" ry="9.43709163"></ellipse>
                    </g>
                    <path d="M116.822222,76.3970916 L25.6333333,76.4637849 C24.5,76.4637849 23.5888889,75.5523108 23.5888889,74.4185259 C23.5888889,73.284741 24.5,72.3732669 25.6333333,72.3732669 L116.822222,72.3065737 C117.955556,72.3065737 118.866667,73.2180478 118.866667,74.3518327 C118.855556,75.474502 117.944444,76.3970916 116.822222,76.3970916 Z" id="Path" fill="#ADC0E1"></path>
                    <path d="M184.222222,110.666295 L25.6555556,110.77745 C24.5222222,110.77745 23.6111111,109.865976 23.6111111,108.732191 C23.6111111,107.598406 24.5222222,106.686932 25.6555556,106.686932 L184.222222,106.575777 C185.355556,106.575777 186.266667,107.487251 186.266667,108.621036 C186.266667,109.754821 185.344444,110.666295 184.222222,110.666295 Z" id="Path" fill="#ADC0E1"></path>
                    <path d="M184.211111,95.6825498 L25.6444444,95.7937052 C24.5111111,95.7937052 23.6,94.8822311 23.6,93.7484462 C23.6,92.6146614 24.5111111,91.7031873 25.6444444,91.7031873 L184.211111,91.5920319 C185.344444,91.5920319 186.255556,92.503506 186.255556,93.6372908 C186.255556,94.7710757 185.333333,95.6825498 184.211111,95.6825498 Z" id="Path" fill="#ADC0E1"></path>
                </g>
                <g id="Group" transform="translate(244.444631, 178.000000)">
                    <path d="M75.7775735,150.167279 C34.4524265,150.167279 0.832720588,116.547574 0.832720588,75.2224265 C0.832720588,33.8972794 34.4524265,0.277573529 75.7775735,0.277573529 C117.102721,0.277573529 150.722426,33.8972794 150.722426,75.2224265 C150.722426,116.547574 117.102721,150.167279 75.7775735,150.167279 Z M75.7775735,5.82904412 C37.5168382,5.82904412 6.38419118,36.9616912 6.38419118,75.2224265 C6.38419118,113.483162 37.5168382,144.615809 75.7775735,144.615809 C114.038309,144.615809 145.170956,113.483162 145.170956,75.2224265 C145.170956,36.9616912 114.038309,5.82904412 75.7775735,5.82904412 Z" id="Shape" fill="#006AB0"></path>
                    <circle id="Oval" fill="#FFFFFF" cx="75.7775735" cy="75.2224265" r="69.3933824"></circle>
                    <path d="M89.27875,35.9624265 L89.27875,66.7397794 C89.27875,68.3830147 87.9463971,69.7153676 86.3031618,69.7153676 L86.3031618,69.7153676 C84.6599265,69.7153676 83.3275735,68.3830147 83.3275735,66.7397794 L83.3275735,22.0615441 C83.3275735,18.7750735 80.6628676,16.0992647 77.3652941,16.0992647 L77.3652941,16.0992647 C74.0788235,16.0992647 71.4030147,18.7639706 71.4030147,22.0615441 L71.4030147,66.7397794 C71.4030147,68.3830147 70.0706618,69.7153676 68.4274265,69.7153676 L68.4274265,69.7153676 C66.7841912,69.7153676 65.4518382,68.3830147 65.4518382,66.7397794 L65.4518382,30.9994118 C65.4518382,28.2569853 63.23125,26.0363971 60.4888235,26.0363971 L60.4888235,26.0363971 C57.7463971,26.0363971 55.5258088,28.2569853 55.5258088,30.9994118 L55.5258088,70.7146324 C55.5258088,72.3578676 54.1934559,73.6902206 52.5502206,73.6902206 L52.5502206,73.6902206 C50.9069853,73.6902206 49.5746324,72.3578676 49.5746324,70.7146324 L49.5746324,45.8884559 C49.5746324,43.1460294 47.3540441,40.9254412 44.6116176,40.9254412 L44.5894118,40.9254412 C41.8469853,40.9254412 39.6263971,43.1460294 39.6263971,45.8884559 L39.6263971,99.7599265 C41.2918382,123.753382 54.4377206,129.426985 73.0129412,129.426985 C86.2476471,129.426985 97.6725735,122.654191 103.146324,112.839191 C105.455735,109.119706 119.423235,87.3690441 120.622353,85.1040441 C122.021324,82.4504412 124.064265,79.2638971 126.65125,77.1543382 C128.028015,76.0329412 128.938456,74.5340441 129.793382,72.9796324 C130.004338,72.5799265 130.637206,67.7279412 127.02875,67.7390441 C123.897721,67.7501471 120.322574,69.0713971 117.735588,70.8256618 C114.826618,72.7908824 111.062721,76.1772794 107.842868,81.8064706 C106.799191,83.6384559 104.922794,84.9152941 102.813235,84.9597059 C100.825809,85.0041176 101.336544,84.0270588 101.214412,79.9189706 L101.214412,79.9189706 L101.214412,73.99 L101.214412,35.9624265 C101.214412,32.6759559 98.5497059,30.0001471 95.2521324,30.0001471 L95.2521324,30.0001471 C91.9545588,30.0001471 89.27875,32.6648529 89.27875,35.9624265 Z" id="Path" fill="#006AB0"></path>
                    <g transform="translate(52.183824, 91.044118)" fill="#FFFFFF">
                        <path d="M0.210955882,18.7195588 L4.24132353,0.699485294 L6.39529412,0.699485294 L10.4256618,18.7195588 L7.83867647,18.7195588 L7.08367647,14.8446324 L3.56404412,14.8446324 L2.80904412,18.7195588 L0.210955882,18.7195588 Z M6.59514706,12.4241912 L5.32941176,5.89566176 L5.27389706,5.89566176 L4.00816176,12.4241912 L6.59514706,12.4241912 Z" id="Shape"></path>
                        <polygon id="Path" points="13.7898529 18.7195588 13.7898529 0.699485294 16.3768382 0.699485294 16.3768382 16.1436765 21.4952941 16.1436765 21.4952941 18.7306618 13.7898529 18.7306618"></polygon>
                        <polygon id="Path" points="25.0815441 18.7195588 25.0815441 3.13102941 22.0948529 3.13102941 22.0948529 0.699485294 30.6552206 0.699485294 30.6552206 3.13102941 27.6685294 3.13102941 27.6685294 18.7195588"></polygon>
                        <path d="M33.4531618,4.95191176 C33.4531618,4.23022059 33.5752941,3.58625 33.8306618,3.03110294 C34.0860294,2.47595588 34.4191176,2.00963235 34.8410294,1.64323529 C35.2407353,1.28794118 35.7070588,1.02147059 36.2177941,0.832720588 C36.7285294,0.643970588 37.2503676,0.555147059 37.7722059,0.555147059 C38.2940441,0.555147059 38.8158824,0.643970588 39.3266176,0.832720588 C39.8373529,1.02147059 40.3147794,1.28794118 40.7366912,1.64323529 C41.1475,2.00963235 41.4694853,2.47595588 41.7248529,3.03110294 C41.9802206,3.58625 42.1023529,4.23022059 42.1023529,4.95191176 L42.1023529,14.4671324 C42.1023529,15.2221324 41.9802206,15.8772059 41.7248529,16.42125 C41.4694853,16.9652941 41.1475,17.4094118 40.7366912,17.7647059 C40.3147794,18.1311029 39.8484559,18.4197794 39.3266176,18.5974265 C38.8158824,18.7861765 38.2940441,18.875 37.7722059,18.875 C37.2503676,18.875 36.7285294,18.7861765 36.2177941,18.5974265 C35.7070588,18.4086765 35.2407353,18.1311029 34.8410294,17.7647059 C34.4191176,17.4094118 34.0860294,16.9652941 33.8306618,16.42125 C33.5752941,15.8772059 33.4531618,15.2332353 33.4531618,14.4671324 L33.4531618,4.95191176 Z M36.0290441,14.4671324 C36.0290441,15.0888971 36.2066912,15.5552206 36.5508824,15.8438971 C36.8950735,16.1436765 37.3058824,16.2880147 37.7833088,16.2880147 C38.2607353,16.2880147 38.6604412,16.1436765 39.0157353,15.8438971 C39.3599265,15.5441176 39.5375735,15.0888971 39.5375735,14.4671324 L39.5375735,4.95191176 C39.5375735,4.33014706 39.3599265,3.86382353 39.0157353,3.57514706 C38.6715441,3.27536765 38.2607353,3.13102941 37.7833088,3.13102941 C37.3058824,3.13102941 36.9061765,3.27536765 36.5508824,3.57514706 C36.2066912,3.87492647 36.0290441,4.33014706 36.0290441,4.95191176 L36.0290441,14.4671324 Z" id="Shape"></path>
                    </g>
                </g>
            </g>
        </g>
    </g>
</svg>