<?xml version="1.0" encoding="UTF-8"?>
<svg width="529px" height="53px" viewBox="0 0 529 53" version="1.1" xmlns="http://www.w3.org/2000/svg" xmlns:xlink="http://www.w3.org/1999/xlink">
    <!-- Generator: sketchtool 55.1 (78136) - https://sketchapp.com -->
    <title>E120829C-D2CC-496B-8705-C5D1472F2E19</title>
    <desc>Created with sketchtool.</desc>
    <g id="Page-1" stroke="none" stroke-width="1" fill="none" fill-rule="evenodd">
        <g id="Error-500" transform="translate(-100.000000, -100.000000)" fill="#006AB0" fill-rule="nonzero">
            <g id="error500" transform="translate(100.000000, 100.000000)">
                <polygon id="Path" points="0 0.86 28.51 0.86 28.51 5.32 4.97 5.32 4.97 23.75 24.2 23.75 24.2 28.21 4.97 28.21 4.97 47 29.81 47 29.81 51.46 0 51.46"></polygon>
                <path d="M60.48,0.86 L75.46,0.86 C80.64,0.86 82.95,1.36 84.96,2.23 C89.71,4.32 92.59,9.14 92.59,15.26 C92.59,22.1 88.7,27.36 83.01,28.94 L83.01,29.08 C83.01,29.08 83.51,29.73 84.31,31.1 L95.33,51.48 L89.64,51.48 L78.19,30.17 L65.45,30.17 L65.45,51.48 L60.48,51.48 L60.48,0.86 Z M77.47,25.71 C83.59,25.71 87.48,21.75 87.48,15.41 C87.48,11.23 85.82,8.14 82.87,6.55 C81.36,5.76 79.56,5.33 75.67,5.33 L65.45,5.33 L65.45,25.71 L77.47,25.71 Z" id="Shape"></path>
                <path d="M125.06,0.86 L140.04,0.86 C145.22,0.86 147.53,1.36 149.54,2.23 C154.29,4.32 157.17,9.14 157.17,15.26 C157.17,22.1 153.28,27.36 147.59,28.94 L147.59,29.08 C147.59,29.08 148.09,29.73 148.89,31.1 L159.91,51.48 L154.22,51.48 L142.77,30.17 L130.02,30.17 L130.02,51.48 L125.05,51.48 L125.05,0.86 L125.06,0.86 Z M142.06,25.71 C148.18,25.71 152.07,21.75 152.07,15.41 C152.07,11.23 150.41,8.14 147.46,6.55 C145.95,5.76 144.15,5.33 140.26,5.33 L130.04,5.33 L130.04,25.71 L142.06,25.71 Z" id="Shape"></path>
                <path d="M211.97,0 C226.3,0 237.75,11.3 237.75,25.85 C237.75,40.68 226.3,52.35 211.97,52.35 C197.64,52.35 186.19,40.69 186.19,25.85 C186.19,11.3 197.64,0 211.97,0 Z M211.97,47.74 C223.35,47.74 232.56,38.23 232.56,25.85 C232.56,13.75 223.34,4.61 211.97,4.61 C200.52,4.61 191.38,13.75 191.38,25.85 C191.38,38.23 200.52,47.74 211.97,47.74 Z" id="Shape"></path>
                <path d="M268.34,0.86 L283.32,0.86 C288.5,0.86 290.81,1.36 292.82,2.23 C297.57,4.32 300.45,9.14 300.45,15.26 C300.45,22.1 296.56,27.36 290.87,28.94 L290.87,29.08 C290.87,29.08 291.37,29.73 292.17,31.1 L303.19,51.48 L297.5,51.48 L286.05,30.17 L273.3,30.17 L273.3,51.48 L268.33,51.48 L268.33,0.86 L268.34,0.86 Z M285.33,25.71 C291.45,25.71 295.34,21.75 295.34,15.41 C295.34,11.23 293.68,8.14 290.73,6.55 C289.22,5.76 287.42,5.33 283.53,5.33 L273.31,5.33 L273.31,25.71 L285.33,25.71 Z" id="Shape"></path>
                <path d="M371.37,41.69 C371.37,41.69 375.11,47.59 382.82,47.59 C389.8,47.59 395.42,42.62 395.42,35.71 C395.42,28.8 389.8,23.83 382.6,23.83 C377.2,23.83 373.38,26.57 373.38,26.57 L370.21,25.42 L372.95,0.87 L397.43,0.87 L397.43,5.33 L377.27,5.33 L375.83,18.29 C375.61,20.09 375.33,21.17 375.33,21.17 L375.47,21.17 C375.47,21.17 378.64,19.22 383.17,19.22 C393.32,19.22 400.6,26.57 400.6,35.71 C400.6,45.07 392.9,52.34 383.03,52.34 C372.95,52.34 368.2,45.14 368.2,45.14 L371.37,41.69 Z" id="Path"></path>
                <path d="M428.9,26.14 C428.9,11.59 433.22,0 446.4,0 C459.58,0 463.83,11.59 463.83,26.14 C463.83,40.83 459.58,52.35 446.4,52.35 C433.22,52.35 428.9,40.83 428.9,26.14 Z M458.64,26.14 C458.64,14.12 455.98,4.68 446.4,4.68 C436.75,4.68 434.09,14.11 434.09,26.14 C434.09,38.24 436.75,47.67 446.4,47.67 C455.97,47.67 458.64,38.23 458.64,26.14 Z" id="Shape"></path>
                <path d="M493.27,26.14 C493.27,11.59 497.59,0 510.77,0 C523.95,0 528.2,11.59 528.2,26.14 C528.2,40.83 523.95,52.35 510.77,52.35 C497.59,52.35 493.27,40.83 493.27,26.14 Z M523.01,26.14 C523.01,14.12 520.35,4.68 510.77,4.68 C501.12,4.68 498.46,14.11 498.46,26.14 C498.46,38.24 501.12,47.67 510.77,47.67 C520.34,47.67 523.01,38.23 523.01,26.14 Z" id="Shape"></path>
            </g>
        </g>
    </g>
</svg>