<?xml version="1.0" encoding="UTF-8"?>
<svg width="527px" height="53px" viewBox="0 0 527 53" version="1.1" xmlns="http://www.w3.org/2000/svg" xmlns:xlink="http://www.w3.org/1999/xlink">
    <!-- Generator: sketchtool 55.1 (78136) - https://sketchapp.com -->
    <title>4862CF3E-D03D-44FF-BD1F-4E265907298D</title>
    <desc>Created with sketchtool.</desc>
    <g id="Page-1" stroke="none" stroke-width="1" fill="none" fill-rule="evenodd">
        <g id="Error-403" transform="translate(-100.000000, -100.000000)" fill="#006AB0" fill-rule="nonzero">
            <g id="error403" transform="translate(100.000000, 100.000000)">
                <polygon id="Path" points="0 0.86 28.51 0.86 28.51 5.32 4.97 5.32 4.97 23.75 24.2 23.75 24.2 28.21 4.97 28.21 4.97 47 29.81 47 29.81 51.46 0 51.46"></polygon>
                <path d="M60.48,0.86 L75.46,0.86 C80.64,0.86 82.95,1.36 84.96,2.23 C89.71,4.32 92.59,9.14 92.59,15.26 C92.59,22.1 88.7,27.36 83.01,28.94 L83.01,29.08 C83.01,29.08 83.51,29.73 84.31,31.1 L95.33,51.48 L89.64,51.48 L78.19,30.17 L65.45,30.17 L65.45,51.48 L60.48,51.48 L60.48,0.86 Z M77.47,25.71 C83.59,25.71 87.48,21.75 87.48,15.41 C87.48,11.23 85.82,8.14 82.87,6.55 C81.36,5.76 79.56,5.33 75.67,5.33 L65.45,5.33 L65.45,25.71 L77.47,25.71 Z" id="Shape"></path>
                <path d="M125.06,0.86 L140.04,0.86 C145.22,0.86 147.53,1.36 149.54,2.23 C154.29,4.32 157.17,9.14 157.17,15.26 C157.17,22.1 153.28,27.36 147.59,28.94 L147.59,29.08 C147.59,29.08 148.09,29.73 148.89,31.1 L159.91,51.48 L154.22,51.48 L142.77,30.17 L130.02,30.17 L130.02,51.48 L125.05,51.48 L125.05,0.86 L125.06,0.86 Z M142.06,25.71 C148.18,25.71 152.07,21.75 152.07,15.41 C152.07,11.23 150.41,8.14 147.46,6.55 C145.95,5.76 144.15,5.33 140.26,5.33 L130.04,5.33 L130.04,25.71 L142.06,25.71 Z" id="Shape"></path>
                <path d="M211.97,0 C226.3,0 237.75,11.3 237.75,25.85 C237.75,40.68 226.3,52.35 211.97,52.35 C197.64,52.35 186.19,40.69 186.19,25.85 C186.19,11.3 197.64,0 211.97,0 Z M211.97,47.74 C223.35,47.74 232.56,38.23 232.56,25.85 C232.56,13.75 223.34,4.61 211.97,4.61 C200.52,4.61 191.38,13.75 191.38,25.85 C191.38,38.23 200.52,47.74 211.97,47.74 Z" id="Shape"></path>
                <path d="M268.34,0.86 L283.32,0.86 C288.5,0.86 290.81,1.36 292.82,2.23 C297.57,4.32 300.45,9.14 300.45,15.26 C300.45,22.1 296.56,27.36 290.87,28.94 L290.87,29.08 C290.87,29.08 291.37,29.73 292.17,31.1 L303.19,51.48 L297.5,51.48 L286.05,30.17 L273.3,30.17 L273.3,51.48 L268.33,51.48 L268.33,0.86 L268.34,0.86 Z M285.33,25.71 C291.45,25.71 295.34,21.75 295.34,15.41 C295.34,11.23 293.68,8.14 290.73,6.55 C289.22,5.76 287.42,5.33 283.53,5.33 L273.31,5.33 L273.31,25.71 L285.33,25.71 Z" id="Shape"></path>
                <path d="M366.76,34.2 L391.67,0.86 L397.07,0.86 L397.07,33.05 L404.27,33.05 L404.27,37.44 L397.07,37.44 L397.07,51.48 L392.1,51.48 L392.1,37.44 L366.75,37.44 L366.75,34.2 L366.76,34.2 Z M392.11,33.05 L392.11,11.88 C392.11,9.72 392.33,7.13 392.33,7.13 L392.19,7.13 C392.19,7.13 391.04,9.15 389.67,10.95 L372.82,32.91 L372.82,33.05 L392.11,33.05 L392.11,33.05 Z" id="Shape"></path>
                <path d="M431.71,26.14 C431.71,11.59 436.03,0 449.21,0 C462.39,0 466.64,11.59 466.64,26.14 C466.64,40.83 462.39,52.35 449.21,52.35 C436.03,52.35 431.71,40.83 431.71,26.14 Z M461.45,26.14 C461.45,14.12 458.79,4.68 449.21,4.68 C439.56,4.68 436.9,14.11 436.9,26.14 C436.9,38.24 439.56,47.67 449.21,47.67 C458.78,47.67 461.45,38.23 461.45,26.14 Z" id="Shape"></path>
                <path d="M497.3,41.62 C497.3,41.62 502.48,47.6 510.26,47.6 C516.31,47.6 521.85,43.14 521.85,36.65 C521.85,29.52 515.73,25.85 509.1,25.85 L505.64,25.85 L504.42,22.9 L517.1,8.06 C518.47,6.48 519.76,5.25 519.76,5.25 L519.76,5.11 C519.76,5.11 518.32,5.33 515.66,5.33 L496.65,5.33 L496.65,0.86 L526.24,0.86 L526.24,4.17 L511.12,21.6 C517.53,21.96 526.96,25.56 526.96,36.51 C526.96,45.15 519.9,52.35 510.33,52.35 C500.39,52.35 494.27,45.44 494.27,45.44 L497.3,41.62 Z" id="Path"></path>
            </g>
        </g>
    </g>
</svg>