<?xml version="1.0" encoding="UTF-8"?>
<svg width="387px" height="331px" viewBox="0 0 387 331" version="1.1" xmlns="http://www.w3.org/2000/svg" xmlns:xlink="http://www.w3.org/1999/xlink">
    <!-- Generator: sketchtool 55.1 (78136) - https://sketchapp.com -->
    <title>62E2823A-FEFD-459A-B9F2-B44CDF958F59</title>
    <desc>Created with sketchtool.</desc>
    <g id="Page-1" stroke="none" stroke-width="1" fill="none" fill-rule="evenodd">
        <g id="Error-404" transform="translate(-172.000000, -363.000000)" fill-rule="nonzero">
            <g id="error404-vector" transform="translate(172.000000, 363.000000)">
                <g id="Group" transform="translate(0.317114, 0.000000)" fill="#006AB0">
                    <path d="M36.8494286,19.11 C35.7128571,19.11 34.7991429,18.1962857 34.7991429,17.0597143 L34.7991429,2.05028571 C34.7991429,0.913714286 35.7128571,0 36.8494286,0 C37.986,0 38.8997143,0.913714286 38.8997143,2.05028571 L38.8997143,17.0597143 C38.8997143,18.1962857 37.986,19.11 36.8494286,19.11 Z" id="Path"></path>
                    <path d="M22.3748571,24.414 C21.8511429,24.414 21.3274286,24.2134286 20.9262857,23.8122857 L10.3071429,13.1931429 C9.50485714,12.3908571 9.50485714,11.0982857 10.3071429,10.296 C11.1094286,9.49371429 12.402,9.49371429 13.2042857,10.296 L23.8234286,20.9151429 C24.6257143,21.7174286 24.6257143,23.01 23.8234286,23.8122857 C23.4222857,24.2134286 22.8985714,24.414 22.3748571,24.414 Z" id="Path"></path>
                    <path d="M17.0597143,38.8997143 L2.05028571,38.8997143 C0.913714286,38.8997143 0,37.986 0,36.8494286 C0,35.7128571 0.913714286,34.7991429 2.05028571,34.7991429 L17.0597143,34.7991429 C18.1962857,34.7991429 19.11,35.7128571 19.11,36.8494286 C19.11,37.986 18.1962857,38.8997143 17.0597143,38.8997143 Z" id="Path"></path>
                </g>
                <g id="Group" transform="translate(26.317114, 28.000000)">
                    <g>
                        <path d="M263.166667,0.122258167 L16.7111111,0.300119522 C7.78888889,0.31123506 0.533333333,7.56968127 0.5444317,16.4954582 L0.688888889,216.89749 C0.7,224.822869 6.6,231.692271 14.4222222,232.881633 C15.2222222,233.003904 16.0555556,233.070598 16.8888889,233.070598 L99.4888889,233.01502 L99.5,251.955896 L84.9555556,251.967012 C77.7444444,251.967012 71.8777778,257.847131 71.8777778,265.061116 L71.8888889,274.009124 C71.8888889,276.687968 74.0777778,278.866614 76.7555556,278.866614 L122.888889,278.833267 L203.222222,278.777689 C205.9,278.777689 208.077778,276.599044 208.077778,273.909084 L208.066667,264.961076 C208.066667,257.747092 202.188889,251.878088 194.977778,251.889203 L180.433333,251.900319 L180.422222,232.959442 L263.022222,232.903865 C263.855556,232.903865 264.677778,232.837171 265.477778,232.7149 C273.3,231.514422 279.2,224.622789 279.188889,216.708526 L278.788889,76.2525896 L279.355556,16.2731474 C279.344444,7.36960159 272.088889,0.111155378 263.166667,0.122258167 Z" id="Path" fill="#ADC0E1"></path>
                        <path d="M5.04444444,16.4954582 C5.04444444,9.88171315 10.4111111,4.50179283 17.0222222,4.50179283 L262.855556,4.32394422 C269.466667,4.32394422 274.844444,9.692749 274.844444,16.306494 L274.866667,48.174741 L5.06666667,48.3637052 L5.04444444,16.4954582 Z" id="Path" fill="#FFFFFF"></path>
                        <rect id="Rectangle" fill="#FFFFFF" x="103.688889" y="232.992789" width="72.5333333" height="18.9408765"></rect>
                        <path d="M274.988889,216.708526 C274.988889,222.877649 270.366667,228.013028 264.233333,228.646614 C263.822222,228.691076 263.422222,228.702191 263.011111,228.702191 L16.8777778,228.88004 C16.4666667,228.88004 16.0666667,228.857809 15.6666667,228.824462 C9.52222222,228.201992 4.88888889,223.077729 4.88888889,216.908606 L4.87777778,199.157092 L274.977778,198.957012 L274.988889,216.708526 Z" id="Path" fill="#FFFFFF"></path>
                        <rect id="Rectangle" fill="#FFFFFF" x="5.12222222" y="52.4653386" width="269.833333" height="142.08992"></rect>
                        <path d="M203.866667,274.587131 L76.0888889,274.676056 L76.0777778,265.061116 C76.0777778,260.159163 80.0555556,256.168685 84.9555556,256.168685 L194.966667,256.090876 C199.866667,256.090876 203.855556,260.070239 203.855556,264.972191 L203.866667,274.587131 Z" id="Path" fill="#FFFFFF"></path>
                    </g>
                    <g transform="translate(16.666667, 16.673307)" fill="#006AB0" id="Oval">
                        <ellipse cx="9.57777778" cy="10.0373307" rx="9.43333333" ry="9.43709163"></ellipse>
                        <ellipse cx="40.5666667" cy="10.0150996" rx="9.43333333" ry="9.43709163"></ellipse>
                        <ellipse cx="71.5555556" cy="9.99286853" rx="9.43333333" ry="9.43709163"></ellipse>
                    </g>
                    <path d="M116.822222,76.3970916 L25.6333333,76.4637849 C24.5,76.4637849 23.5888889,75.5523108 23.5888889,74.4185259 C23.5888889,73.284741 24.5,72.3732669 25.6333333,72.3732669 L116.822222,72.3065737 C117.955556,72.3065737 118.866667,73.2180478 118.866667,74.3518327 C118.855556,75.474502 117.944444,76.3970916 116.822222,76.3970916 Z" id="Path" fill="#ADC0E1"></path>
                    <path d="M184.222222,110.666295 L25.6555556,110.77745 C24.5222222,110.77745 23.6111111,109.865976 23.6111111,108.732191 C23.6111111,107.598406 24.5222222,106.686932 25.6555556,106.686932 L184.222222,106.575777 C185.355556,106.575777 186.266667,107.487251 186.266667,108.621036 C186.266667,109.754821 185.344444,110.666295 184.222222,110.666295 Z" id="Path" fill="#ADC0E1"></path>
                    <path d="M184.211111,95.6825498 L25.6444444,95.7937052 C24.5111111,95.7937052 23.6,94.8822311 23.6,93.7484462 C23.6,92.6146614 24.5111111,91.7031873 25.6444444,91.7031873 L184.211111,91.5920319 C185.344444,91.5920319 186.255556,92.503506 186.255556,93.6372908 C186.255556,94.7710757 185.333333,95.6825498 184.211111,95.6825498 Z" id="Path" fill="#ADC0E1"></path>
                </g>
                <g id="Group" transform="translate(247.317114, 192.000000)">
                    <ellipse id="Oval" fill="#FFFFFF" cx="48.18296" cy="48.21632" rx="43.23456" ry="42.95656"></ellipse>
                    <path d="M0.45592,48.21632 C0.45592,74.35944 21.86192,95.632 48.18296,95.632 C59.01384,95.632 68.9996,92.02912 77.01712,85.96872 L86.6804,95.5764 C86.74712,95.632 86.80272,95.6876 86.86944,95.7432 C86.70264,96.53272 86.61368,97.33336 86.61368,98.15624 C86.61368,101.29208 87.848,104.23888 90.072,106.46288 L118.79496,134.9968 C121.03008,137.2208 123.99912,138.43288 127.1572,138.43288 C130.31528,138.43288 133.28432,137.20968 135.51944,134.9968 C137.75456,132.78392 138.97776,129.826 138.97776,126.69016 C138.97776,123.55432 137.74344,120.60752 135.51944,118.38352 L106.79648,89.8496 C104.56136,87.6256 101.59232,86.41352 98.43424,86.41352 C97.61136,86.41352 96.7996,86.50248 95.99896,86.65816 C95.94336,86.59144 95.88776,86.52472 95.83216,86.46912 L86.16888,76.86144 C92.26264,68.89952 95.89888,58.96936 95.89888,48.2052 C95.89888,22.06208 74.49288,0.78952 48.17184,0.78952 C21.8508,0.78952 0.45592,22.0732 0.45592,48.21632 Z M96.04344,106.07368 L106.40728,95.77656 L132.35024,121.55272 C133.74024,122.9316 134.4964,124.75528 134.4964,126.70128 C134.4964,128.64728 133.72912,130.47096 132.35024,131.84984 C130.96024,133.22872 129.12544,133.98488 127.16832,133.98488 C125.2112,133.98488 123.36528,133.22872 121.9864,131.84984 L96.04344,106.07368 Z M91.11728,98.15624 C91.11728,96.21024 91.88456,94.38656 93.26344,93.00768 C94.69792,91.58432 96.56608,90.87264 98.44536,90.87264 C100.14672,90.87264 101.84808,91.462 103.21584,92.6296 L92.88536,102.89336 C91.74,101.5812 91.11728,99.92432 91.11728,98.15624 Z M80.47544,83.09976 C81.454,82.21016 82.38808,81.27608 83.2888,80.30864 L91.61768,88.58192 C91.08392,88.96 90.5724,89.38256 90.09424,89.86072 C89.61608,90.32776 89.19352,90.83928 88.80432,91.37304 L80.47544,83.09976 Z M4.9484,48.21632 C4.9484,24.53072 24.34168,5.25976 48.18296,5.25976 C72.02424,5.25976 91.41752,24.53072 91.41752,48.21632 C91.41752,71.90192 72.02424,91.17288 48.18296,91.17288 C24.34168,91.17288 4.9484,71.90192 4.9484,48.21632 Z" id="Shape" fill="#006AB0"></path>
                    <path d="M77.81776,34.18288 C76.5056,34.40528 75.62712,35.65072 75.84952,36.96288 C76.07192,38.27504 77.31736,39.15352 78.62952,38.93112 C79.94168,38.70872 80.82016,37.46328 80.59776,36.15112 C80.37536,34.83896 79.12992,33.96048 77.81776,34.18288 Z" id="Path" fill="#006AB0"></path>
                    <path d="M75.46032,26.53232 C72.5024,21.55056 68.1656,17.60296 62.91696,15.11208 C57.53488,12.5656 51.58568,11.74272 45.71432,12.74352 C44.40216,12.96592 43.52368,14.21136 43.74608,15.52352 C43.96848,16.83568 45.21392,17.71416 46.52608,17.49176 C56.28944,15.83488 66.26408,20.44968 71.32368,28.98984 C71.84632,29.86832 72.84712,30.302 73.80344,30.1352 C74.08144,30.09072 74.37056,29.99064 74.62632,29.83496 C75.76056,29.15664 76.13864,27.67768 75.46032,26.53232 Z" id="Path" fill="#006AB0"></path>
                </g>
            </g>
        </g>
    </g>
</svg>