<?xml version="1.0" encoding="UTF-8"?>
<svg width="251px" height="328px" viewBox="0 0 251 328" version="1.1" xmlns="http://www.w3.org/2000/svg" xmlns:xlink="http://www.w3.org/1999/xlink">
    <!-- Generator: sketchtool 55.1 (78136) - https://sketchapp.com -->
    <title>D5324ED7-EC1F-4CD8-9454-B9833BC6F4B3</title>
    <desc>Created with sketchtool.</desc>
    <g id="Page-1" stroke="none" stroke-width="1" fill="none" fill-rule="evenodd">
        <g id="Error-500" transform="translate(-240.000000, -365.000000)" fill-rule="nonzero">
            <g id="error500-vector" transform="translate(240.000000, 365.000000)">
                <g id="Group" transform="translate(23.598993, 23.000000)" fill="#ADC0E1">
                    <path d="M163.536392,48.4431818 L10.3560127,48.4431818 C4.65189873,48.4431818 0,43.7770455 0,38.0306818 L0,10.9693182 C0,5.23409091 4.64082278,0.556818182 10.3560127,0.556818182 L163.547468,0.556818182 C169.251582,0.556818182 173.903481,5.22295455 173.903481,10.9693182 L173.903481,38.0418182 C173.892405,43.7770455 169.251582,48.4431818 163.536392,48.4431818 Z M10.3560127,3.89772727 C6.47943038,3.89772727 3.32278481,7.07159091 3.32278481,10.9693182 L3.32278481,38.0418182 C3.32278481,41.9395455 6.47943038,45.1134091 10.3560127,45.1134091 L163.547468,45.1134091 C167.424051,45.1134091 170.580696,41.9395455 170.580696,38.0418182 L170.580696,10.9693182 C170.580696,7.07159091 167.424051,3.89772727 163.547468,3.89772727 L10.3560127,3.89772727 Z" id="Shape"></path>
                    <ellipse id="Oval" cx="25.4746835" cy="23.9431818" rx="7.75316456" ry="7.79545455"></ellipse>
                    <path d="M99.1297468,33.4090909 C98.210443,33.4090909 97.4683544,32.6629545 97.4683544,31.7386364 L97.4683544,16.1477273 C97.4683544,15.2234091 98.210443,14.4772727 99.1297468,14.4772727 C100.049051,14.4772727 100.791139,15.2234091 100.791139,16.1477273 L100.791139,31.7386364 C100.791139,32.6629545 100.049051,33.4090909 99.1297468,33.4090909 Z" id="Path"></path>
                    <path d="M111.867089,33.4090909 C110.947785,33.4090909 110.205696,32.6629545 110.205696,31.7386364 L110.205696,16.1477273 C110.205696,15.2234091 110.947785,14.4772727 111.867089,14.4772727 C112.786392,14.4772727 113.528481,15.2234091 113.528481,16.1477273 L113.528481,31.7386364 C113.528481,32.6629545 112.786392,33.4090909 111.867089,33.4090909 Z" id="Path"></path>
                    <path d="M124.60443,33.4090909 C123.685127,33.4090909 122.943038,32.6629545 122.943038,31.7386364 L122.943038,16.1477273 C122.943038,15.2234091 123.685127,14.4772727 124.60443,14.4772727 C125.523734,14.4772727 126.265823,15.2234091 126.265823,16.1477273 L126.265823,31.7386364 C126.265823,32.6629545 125.523734,33.4090909 124.60443,33.4090909 Z" id="Path"></path>
                    <path d="M137.341772,33.4090909 C136.422468,33.4090909 135.68038,32.6629545 135.68038,31.7386364 L135.68038,16.1477273 C135.68038,15.2234091 136.422468,14.4772727 137.341772,14.4772727 C138.261076,14.4772727 139.003165,15.2234091 139.003165,16.1477273 L139.003165,31.7386364 C139.003165,32.6629545 138.261076,33.4090909 137.341772,33.4090909 Z" id="Path"></path>
                    <path d="M150.079114,33.4090909 C149.15981,33.4090909 148.417722,32.6629545 148.417722,31.7386364 L148.417722,16.1477273 C148.417722,15.2234091 149.15981,14.4772727 150.079114,14.4772727 C150.998418,14.4772727 151.740506,15.2234091 151.740506,16.1477273 L151.740506,31.7386364 C151.740506,32.6629545 150.998418,33.4090909 150.079114,33.4090909 Z" id="Path"></path>
                </g>
                <g id="Group" transform="translate(23.598993, 68.000000)" fill="#ADC0E1">
                    <path d="M163.536392,48.4431818 L10.3560127,48.4431818 C4.65189873,48.4431818 0,43.7770455 0,38.0306818 L0,10.9693182 C0,5.23409091 4.64082278,0.556818182 10.3560127,0.556818182 L163.547468,0.556818182 C169.251582,0.556818182 173.903481,5.22295455 173.903481,10.9693182 L173.903481,38.0418182 C173.892405,43.7770455 169.251582,48.4431818 163.536392,48.4431818 Z M10.3560127,3.89772727 C6.47943038,3.89772727 3.32278481,7.07159091 3.32278481,10.9693182 L3.32278481,38.0418182 C3.32278481,41.9395455 6.47943038,45.1134091 10.3560127,45.1134091 L163.547468,45.1134091 C167.424051,45.1134091 170.580696,41.9395455 170.580696,38.0418182 L170.580696,10.9693182 C170.580696,7.07159091 167.424051,3.89772727 163.547468,3.89772727 L10.3560127,3.89772727 Z" id="Shape"></path>
                    <ellipse id="Oval" cx="25.4746835" cy="23.9431818" rx="7.75316456" ry="7.79545455"></ellipse>
                    <path d="M86.3924051,33.4090909 C85.4731013,33.4090909 84.7310127,32.6629545 84.7310127,31.7386364 L84.7310127,16.1477273 C84.7310127,15.2234091 85.4731013,14.4772727 86.3924051,14.4772727 C87.3117089,14.4772727 88.0537975,15.2234091 88.0537975,16.1477273 L88.0537975,31.7386364 C88.0537975,32.6629545 87.3117089,33.4090909 86.3924051,33.4090909 Z" id="Path"></path>
                    <path d="M99.1297468,33.4090909 C98.210443,33.4090909 97.4683544,32.6629545 97.4683544,31.7386364 L97.4683544,16.1477273 C97.4683544,15.2234091 98.210443,14.4772727 99.1297468,14.4772727 C100.049051,14.4772727 100.791139,15.2234091 100.791139,16.1477273 L100.791139,31.7386364 C100.791139,32.6629545 100.049051,33.4090909 99.1297468,33.4090909 Z" id="Path"></path>
                    <path d="M111.867089,33.4090909 C110.947785,33.4090909 110.205696,32.6629545 110.205696,31.7386364 L110.205696,16.1477273 C110.205696,15.2234091 110.947785,14.4772727 111.867089,14.4772727 C112.786392,14.4772727 113.528481,15.2234091 113.528481,16.1477273 L113.528481,31.7386364 C113.528481,32.6629545 112.786392,33.4090909 111.867089,33.4090909 Z" id="Path"></path>
                    <path d="M124.60443,33.4090909 C123.685127,33.4090909 122.943038,32.6629545 122.943038,31.7386364 L122.943038,16.1477273 C122.943038,15.2234091 123.685127,14.4772727 124.60443,14.4772727 C125.523734,14.4772727 126.265823,15.2234091 126.265823,16.1477273 L126.265823,31.7386364 C126.265823,32.6629545 125.523734,33.4090909 124.60443,33.4090909 Z" id="Path"></path>
                    <path d="M137.341772,33.4090909 C136.422468,33.4090909 135.68038,32.6629545 135.68038,31.7386364 L135.68038,16.1477273 C135.68038,15.2234091 136.422468,14.4772727 137.341772,14.4772727 C138.261076,14.4772727 139.003165,15.2234091 139.003165,16.1477273 L139.003165,31.7386364 C139.003165,32.6629545 138.261076,33.4090909 137.341772,33.4090909 Z" id="Path"></path>
                    <path d="M150.079114,33.4090909 C149.15981,33.4090909 148.417722,32.6629545 148.417722,31.7386364 L148.417722,16.1477273 C148.417722,15.2234091 149.15981,14.4772727 150.079114,14.4772727 C150.998418,14.4772727 151.740506,15.2234091 151.740506,16.1477273 L151.740506,31.7386364 C151.740506,32.6629545 150.998418,33.4090909 150.079114,33.4090909 Z" id="Path"></path>
                </g>
                <g id="Group" transform="translate(23.598993, 112.000000)">
                    <path d="M163.536392,48.4431818 L10.3560127,48.4431818 C4.65189873,48.4431818 0,43.7770455 0,38.0306818 L0,10.9581818 C0,5.22295455 4.64082278,0.545681818 10.3560127,0.545681818 L163.547468,0.545681818 C169.251582,0.545681818 173.903481,5.21181818 173.903481,10.9581818 L173.903481,38.0306818 C173.892405,43.7770455 169.251582,48.4431818 163.536392,48.4431818 Z M10.3560127,3.89772727 C6.47943038,3.89772727 3.32278481,7.07159091 3.32278481,10.9693182 L3.32278481,38.0418182 C3.32278481,41.9395455 6.47943038,45.1134091 10.3560127,45.1134091 L163.547468,45.1134091 C167.424051,45.1134091 170.580696,41.9395455 170.580696,38.0418182 L170.580696,10.9693182 C170.580696,7.07159091 167.424051,3.89772727 163.547468,3.89772727 L10.3560127,3.89772727 Z" id="Shape" fill="#ADC0E1"></path>
                    <ellipse id="Oval" fill="#006AB0" cx="25.4746835" cy="23.9431818" rx="7.75316456" ry="7.79545455"></ellipse>
                    <ellipse id="Oval" fill="#006AB0" cx="54.2721519" cy="23.9431818" rx="7.75316456" ry="7.79545455"></ellipse>
                    <path d="M99.1297468,33.4090909 C98.210443,33.4090909 97.4683544,32.6629545 97.4683544,31.7386364 L97.4683544,16.1477273 C97.4683544,15.2234091 98.210443,14.4772727 99.1297468,14.4772727 C100.049051,14.4772727 100.791139,15.2234091 100.791139,16.1477273 L100.791139,31.7386364 C100.791139,32.6629545 100.049051,33.4090909 99.1297468,33.4090909 Z" id="Path" fill="#ADC0E1"></path>
                    <path d="M111.867089,33.4090909 C110.947785,33.4090909 110.205696,32.6629545 110.205696,31.7386364 L110.205696,16.1477273 C110.205696,15.2234091 110.947785,14.4772727 111.867089,14.4772727 C112.786392,14.4772727 113.528481,15.2234091 113.528481,16.1477273 L113.528481,31.7386364 C113.528481,32.6629545 112.786392,33.4090909 111.867089,33.4090909 Z" id="Path" fill="#ADC0E1"></path>
                    <path d="M124.60443,33.4090909 C123.685127,33.4090909 122.943038,32.6629545 122.943038,31.7386364 L122.943038,16.1477273 C122.943038,15.2234091 123.685127,14.4772727 124.60443,14.4772727 C125.523734,14.4772727 126.265823,15.2234091 126.265823,16.1477273 L126.265823,31.7386364 C126.265823,32.6629545 125.523734,33.4090909 124.60443,33.4090909 Z" id="Path" fill="#ADC0E1"></path>
                    <path d="M137.341772,33.4090909 C136.422468,33.4090909 135.68038,32.6629545 135.68038,31.7386364 L135.68038,16.1477273 C135.68038,15.2234091 136.422468,14.4772727 137.341772,14.4772727 C138.261076,14.4772727 139.003165,15.2234091 139.003165,16.1477273 L139.003165,31.7386364 C139.003165,32.6629545 138.261076,33.4090909 137.341772,33.4090909 Z" id="Path" fill="#ADC0E1"></path>
                    <path d="M150.079114,33.4090909 C149.15981,33.4090909 148.417722,32.6629545 148.417722,31.7386364 L148.417722,16.1477273 C148.417722,15.2234091 149.15981,14.4772727 150.079114,14.4772727 C150.998418,14.4772727 151.740506,15.2234091 151.740506,16.1477273 L151.740506,31.7386364 C151.740506,32.6629545 150.998418,33.4090909 150.079114,33.4090909 Z" id="Path" fill="#ADC0E1"></path>
                </g>
                <g id="Group" transform="translate(23.598993, 157.000000)" fill="#ADC0E1">
                    <path d="M163.536392,48.4431818 L10.3560127,48.4431818 C4.65189873,48.4431818 0,43.7770455 0,38.0306818 L0,10.9581818 C0,5.22295455 4.64082278,0.545681818 10.3560127,0.545681818 L163.547468,0.545681818 C169.251582,0.545681818 173.903481,5.21181818 173.903481,10.9581818 L173.903481,38.0306818 C173.892405,43.7770455 169.251582,48.4431818 163.536392,48.4431818 Z M10.3560127,3.89772727 C6.47943038,3.89772727 3.32278481,7.07159091 3.32278481,10.9693182 L3.32278481,38.0418182 C3.32278481,41.9395455 6.47943038,45.1134091 10.3560127,45.1134091 L163.547468,45.1134091 C167.424051,45.1134091 170.580696,41.9395455 170.580696,38.0418182 L170.580696,10.9693182 C170.580696,7.07159091 167.424051,3.89772727 163.547468,3.89772727 L10.3560127,3.89772727 Z" id="Shape"></path>
                    <ellipse id="Oval" cx="25.4746835" cy="23.9431818" rx="7.75316456" ry="7.79545455"></ellipse>
                    <path d="M86.3924051,33.4090909 C85.4731013,33.4090909 84.7310127,32.6629545 84.7310127,31.7386364 L84.7310127,16.1477273 C84.7310127,15.2234091 85.4731013,14.4772727 86.3924051,14.4772727 C87.3117089,14.4772727 88.0537975,15.2234091 88.0537975,16.1477273 L88.0537975,31.7386364 C88.0537975,32.6629545 87.3117089,33.4090909 86.3924051,33.4090909 Z" id="Path"></path>
                    <path d="M99.1297468,33.4090909 C98.210443,33.4090909 97.4683544,32.6629545 97.4683544,31.7386364 L97.4683544,16.1477273 C97.4683544,15.2234091 98.210443,14.4772727 99.1297468,14.4772727 C100.049051,14.4772727 100.791139,15.2234091 100.791139,16.1477273 L100.791139,31.7386364 C100.791139,32.6629545 100.049051,33.4090909 99.1297468,33.4090909 Z" id="Path"></path>
                    <path d="M111.867089,33.4090909 C110.947785,33.4090909 110.205696,32.6629545 110.205696,31.7386364 L110.205696,16.1477273 C110.205696,15.2234091 110.947785,14.4772727 111.867089,14.4772727 C112.786392,14.4772727 113.528481,15.2234091 113.528481,16.1477273 L113.528481,31.7386364 C113.528481,32.6629545 112.786392,33.4090909 111.867089,33.4090909 Z" id="Path"></path>
                    <path d="M124.60443,33.4090909 C123.685127,33.4090909 122.943038,32.6629545 122.943038,31.7386364 L122.943038,16.1477273 C122.943038,15.2234091 123.685127,14.4772727 124.60443,14.4772727 C125.523734,14.4772727 126.265823,15.2234091 126.265823,16.1477273 L126.265823,31.7386364 C126.265823,32.6629545 125.523734,33.4090909 124.60443,33.4090909 Z" id="Path"></path>
                    <path d="M137.341772,33.4090909 C136.422468,33.4090909 135.68038,32.6629545 135.68038,31.7386364 L135.68038,16.1477273 C135.68038,15.2234091 136.422468,14.4772727 137.341772,14.4772727 C138.261076,14.4772727 139.003165,15.2234091 139.003165,16.1477273 L139.003165,31.7386364 C139.003165,32.6629545 138.261076,33.4090909 137.341772,33.4090909 Z" id="Path"></path>
                    <path d="M150.079114,33.4090909 C149.15981,33.4090909 148.417722,32.6629545 148.417722,31.7386364 L148.417722,16.1477273 C148.417722,15.2234091 149.15981,14.4772727 150.079114,14.4772727 C150.998418,14.4772727 151.740506,15.2234091 151.740506,16.1477273 L151.740506,31.7386364 C151.740506,32.6629545 150.998418,33.4090909 150.079114,33.4090909 Z" id="Path"></path>
                </g>
                <g id="Group" transform="translate(23.598993, 201.000000)" fill="#ADC0E1">
                    <path d="M163.536392,48.4431818 L10.3560127,48.4431818 C4.65189873,48.4431818 0,43.7770455 0,38.0306818 L0,10.9581818 C0,5.22295455 4.64082278,0.545681818 10.3560127,0.545681818 L163.547468,0.545681818 C169.251582,0.545681818 173.903481,5.21181818 173.903481,10.9581818 L173.903481,38.0306818 C173.892405,43.7770455 169.251582,48.4431818 163.536392,48.4431818 Z M10.3560127,3.89772727 C6.47943038,3.89772727 3.32278481,7.07159091 3.32278481,10.9693182 L3.32278481,38.0418182 C3.32278481,41.9395455 6.47943038,45.1134091 10.3560127,45.1134091 L163.547468,45.1134091 C167.424051,45.1134091 170.580696,41.9395455 170.580696,38.0418182 L170.580696,10.9693182 C170.580696,7.07159091 167.424051,3.89772727 163.547468,3.89772727 L10.3560127,3.89772727 Z" id="Shape"></path>
                    <ellipse id="Oval" cx="25.4746835" cy="23.9431818" rx="7.75316456" ry="7.79545455"></ellipse>
                    <path d="M99.1297468,33.4090909 C98.210443,33.4090909 97.4683544,32.6629545 97.4683544,31.7386364 L97.4683544,16.1477273 C97.4683544,15.2234091 98.210443,14.4772727 99.1297468,14.4772727 C100.049051,14.4772727 100.791139,15.2234091 100.791139,16.1477273 L100.791139,31.7386364 C100.791139,32.6629545 100.049051,33.4090909 99.1297468,33.4090909 Z" id="Path"></path>
                    <path d="M111.867089,33.4090909 C110.947785,33.4090909 110.205696,32.6629545 110.205696,31.7386364 L110.205696,16.1477273 C110.205696,15.2234091 110.947785,14.4772727 111.867089,14.4772727 C112.786392,14.4772727 113.528481,15.2234091 113.528481,16.1477273 L113.528481,31.7386364 C113.528481,32.6629545 112.786392,33.4090909 111.867089,33.4090909 Z" id="Path"></path>
                    <path d="M124.60443,33.4090909 C123.685127,33.4090909 122.943038,32.6629545 122.943038,31.7386364 L122.943038,16.1477273 C122.943038,15.2234091 123.685127,14.4772727 124.60443,14.4772727 C125.523734,14.4772727 126.265823,15.2234091 126.265823,16.1477273 L126.265823,31.7386364 C126.265823,32.6629545 125.523734,33.4090909 124.60443,33.4090909 Z" id="Path"></path>
                    <path d="M137.341772,33.4090909 C136.422468,33.4090909 135.68038,32.6629545 135.68038,31.7386364 L135.68038,16.1477273 C135.68038,15.2234091 136.422468,14.4772727 137.341772,14.4772727 C138.261076,14.4772727 139.003165,15.2234091 139.003165,16.1477273 L139.003165,31.7386364 C139.003165,32.6629545 138.261076,33.4090909 137.341772,33.4090909 Z" id="Path"></path>
                    <path d="M150.079114,33.4090909 C149.15981,33.4090909 148.417722,32.6629545 148.417722,31.7386364 L148.417722,16.1477273 C148.417722,15.2234091 149.15981,14.4772727 150.079114,14.4772727 C150.998418,14.4772727 151.740506,15.2234091 151.740506,16.1477273 L151.740506,31.7386364 C151.740506,32.6629545 150.998418,33.4090909 150.079114,33.4090909 Z" id="Path"></path>
                </g>
                <g id="Group" transform="translate(23.598993, 246.000000)" fill="#ADC0E1">
                    <path d="M163.536392,48.4431818 L10.3560127,48.4431818 C4.65189873,48.4431818 0,43.7770455 0,38.0306818 L0,10.9581818 C0,5.22295455 4.64082278,0.545681818 10.3560127,0.545681818 L163.547468,0.545681818 C169.251582,0.545681818 173.903481,5.21181818 173.903481,10.9581818 L173.903481,38.0306818 C173.892405,43.7770455 169.251582,48.4431818 163.536392,48.4431818 Z M10.3560127,3.89772727 C6.47943038,3.89772727 3.32278481,7.07159091 3.32278481,10.9693182 L3.32278481,38.0418182 C3.32278481,41.9395455 6.47943038,45.1134091 10.3560127,45.1134091 L163.547468,45.1134091 C167.424051,45.1134091 170.580696,41.9395455 170.580696,38.0418182 L170.580696,10.9693182 C170.580696,7.07159091 167.424051,3.89772727 163.547468,3.89772727 L10.3560127,3.89772727 Z" id="Shape"></path>
                    <ellipse id="Oval" cx="25.4746835" cy="23.9431818" rx="7.75316456" ry="7.79545455"></ellipse>
                    <path d="M86.3924051,33.4090909 C85.4731013,33.4090909 84.7310127,32.6629545 84.7310127,31.7386364 L84.7310127,16.1477273 C84.7310127,15.2234091 85.4731013,14.4772727 86.3924051,14.4772727 C87.3117089,14.4772727 88.0537975,15.2234091 88.0537975,16.1477273 L88.0537975,31.7386364 C88.0537975,32.6629545 87.3117089,33.4090909 86.3924051,33.4090909 Z" id="Path"></path>
                    <path d="M99.1297468,33.4090909 C98.210443,33.4090909 97.4683544,32.6629545 97.4683544,31.7386364 L97.4683544,16.1477273 C97.4683544,15.2234091 98.210443,14.4772727 99.1297468,14.4772727 C100.049051,14.4772727 100.791139,15.2234091 100.791139,16.1477273 L100.791139,31.7386364 C100.791139,32.6629545 100.049051,33.4090909 99.1297468,33.4090909 Z" id="Path"></path>
                    <path d="M111.867089,33.4090909 C110.947785,33.4090909 110.205696,32.6629545 110.205696,31.7386364 L110.205696,16.1477273 C110.205696,15.2234091 110.947785,14.4772727 111.867089,14.4772727 C112.786392,14.4772727 113.528481,15.2234091 113.528481,16.1477273 L113.528481,31.7386364 C113.528481,32.6629545 112.786392,33.4090909 111.867089,33.4090909 Z" id="Path"></path>
                    <path d="M124.60443,33.4090909 C123.685127,33.4090909 122.943038,32.6629545 122.943038,31.7386364 L122.943038,16.1477273 C122.943038,15.2234091 123.685127,14.4772727 124.60443,14.4772727 C125.523734,14.4772727 126.265823,15.2234091 126.265823,16.1477273 L126.265823,31.7386364 C126.265823,32.6629545 125.523734,33.4090909 124.60443,33.4090909 Z" id="Path"></path>
                    <path d="M137.341772,33.4090909 C136.422468,33.4090909 135.68038,32.6629545 135.68038,31.7386364 L135.68038,16.1477273 C135.68038,15.2234091 136.422468,14.4772727 137.341772,14.4772727 C138.261076,14.4772727 139.003165,15.2234091 139.003165,16.1477273 L139.003165,31.7386364 C139.003165,32.6629545 138.261076,33.4090909 137.341772,33.4090909 Z" id="Path"></path>
                </g>
                <g id="Group" transform="translate(0.598993, 0.000000)" fill="#006AB0">
                    <path d="M29.7931034,15.4482759 C28.8772414,15.4482759 28.137931,14.7089655 28.137931,13.7931034 L28.137931,1.65517241 C28.137931,0.739310345 28.8772414,0 29.7931034,0 C30.7089655,0 31.4482759,0.739310345 31.4482759,1.65517241 L31.4482759,13.7931034 C31.4482759,14.7089655 30.7089655,15.4482759 29.7931034,15.4482759 Z" id="Path"></path>
                    <path d="M18.0855172,19.7406897 C17.6662069,19.7406897 17.2358621,19.5751724 16.9158621,19.2551724 L8.33103448,10.6703448 C7.68,10.0193103 7.68,8.97103448 8.33103448,8.33103448 C8.97103448,7.68 10.0303448,7.68 10.6703448,8.33103448 L19.2551724,16.9158621 C19.9062069,17.5668966 19.9062069,18.6151724 19.2551724,19.2551724 C18.9351724,19.5751724 18.5048276,19.7406897 18.0855172,19.7406897 Z" id="Path"></path>
                    <path d="M13.7931034,31.4482759 L1.65517241,31.4482759 C0.739310345,31.4482759 0,30.7089655 0,29.7931034 C0,28.8772414 0.739310345,28.137931 1.65517241,28.137931 L13.7931034,28.137931 C14.7089655,28.137931 15.4482759,28.8772414 15.4482759,29.7931034 C15.4482759,30.7089655 14.7089655,31.4482759 13.7931034,31.4482759 Z" id="Path"></path>
                </g>
                <g id="Group" transform="translate(143.598993, 230.000000)">
                    <path d="M61.190625,4.83318182 L105.985729,86.1063636 C108.928229,91.4518182 105.060625,98 98.9527083,98 L8.18104167,98 C2.02854167,98 -1.8390625,91.3738636 1.19260417,86.0284091 L47.1691667,4.75522727 C50.2565625,-0.712727273 58.1478125,-0.668181818 61.190625,4.83318182 Z" id="Path" fill="#006AB0"></path>
                    <path d="M57.2784375,9.94477273 L99.7997917,87.0863636 C101.126146,89.4918182 99.3873958,92.4318182 96.6455208,92.4318182 L10.4882292,92.4318182 C7.7240625,92.4318182 5.9853125,89.4584091 7.34510417,87.0529545 L50.9810417,9.91136364 C52.3742708,7.45022727 55.9186458,7.4725 57.2784375,9.94477273 Z" id="Path" fill="#FFFFFF"></path>
                    <g transform="translate(45.697917, 37.863636)" fill="#006AB0">
                        <path d="M0.8359375,8.06272727 L3.49979167,25.7138636 C3.83416667,27.7072727 5.49489583,29.3777273 7.83552083,29.3777273 L7.83552083,29.3777273 C9.830625,29.3777273 11.836875,27.7072727 12.17125,25.7138636 L14.8351042,8.06272727 C15.5038542,3.73068182 12.17125,0.0668181818 7.83552083,0.0668181818 L7.83552083,0.0668181818 C3.49979167,0.0668181818 0.5015625,3.73068182 0.8359375,8.06272727 Z" id="Path"></path>
                        <ellipse id="Oval" cx="7.83552083" cy="37.0395455" rx="4.00135417" ry="3.99795455"></ellipse>
                    </g>
                </g>
            </g>
        </g>
    </g>
</svg>