<?xml version="1.0" encoding="UTF-8"?>
<svg width="115px" height="50px" viewBox="0 0 115 50" version="1.1" xmlns="http://www.w3.org/2000/svg" xmlns:xlink="http://www.w3.org/1999/xlink">
    <!-- Generator: sketchtool 55.1 (78136) - https://sketchapp.com -->
    <title>56F20D8B-2C1F-499C-812E-ECF797948CCC</title>
    <desc>Created with sketchtool.</desc>
    <defs>
        <polygon id="path-1" points="0 50 115 50 115 0 0 0"></polygon>
    </defs>
    <g id="Page-1" stroke="none" stroke-width="1" fill="none" fill-rule="evenodd">
        <g id="Error-404" transform="translate(-1225.000000, -807.000000)">
            <g id="Group-41" transform="translate(1225.000000, 807.000000)">
                <path d="M16.9354716,48.4276232 C17.2354621,48.6650498 17.5902732,48.784529 18.0014276,48.784529 C18.5016656,48.784529 18.9859142,48.6673475 19.4549348,48.4352821 C20.2445037,48.0492724 20.6389074,47.4174113 20.6389074,46.5396987 L20.6389074,45.3893286 C20.4653088,45.5011488 20.2422195,45.5945877 19.9688779,45.6681134 C19.6955363,45.7431708 19.4282859,45.7952515 19.1656039,45.8266531 L18.3059865,45.9384733 C17.791282,46.0074036 17.4037308,46.1153944 17.1448558,46.2639775 C16.7047682,46.5121266 16.4854859,46.9080929 16.4854859,47.4526423 C16.4854859,47.8646924 16.6347197,48.1894307 16.9354716,48.4276232 L16.9354716,48.4276232 Z M19.9285238,44.5644626 C20.2544018,44.5215726 20.4729228,44.3852438 20.5840868,44.1516467 C20.6472828,44.0245086 20.6785,43.8422262 20.6785,43.6025019 C20.6785,43.1130968 20.5064243,42.7584886 20.1622728,42.5379117 C19.8181213,42.3165688 19.3254973,42.2070462 18.6844009,42.2070462 C17.9435614,42.2070462 17.4181974,42.4084759 17.1083087,42.8136329 C16.9347102,43.0372734 16.8220234,43.3696707 16.769487,43.8115905 L15.4431331,43.8115905 C15.4690207,42.7600204 15.807081,42.0285933 16.4565528,41.6157774 C17.1060246,41.2044932 17.8590464,41 18.7163796,41 C19.7100029,41 20.5170838,41.1899413 21.1376225,41.5713556 C21.7528314,41.95277 22.0604359,42.5455706 22.0604359,43.3505234 L22.0604359,48.2522339 C22.0604359,48.400817 22.0908918,48.5195303 22.1518036,48.6091396 C22.2119539,48.698749 22.3398687,48.7447026 22.5347863,48.7447026 C22.5979823,48.7447026 22.6687922,48.7401072 22.7472161,48.7316824 C22.8264014,48.7240235 22.9109165,48.7125351 23,48.6964514 L23,49.7526168 C22.7791948,49.8161859 22.610926,49.8560123 22.4951937,49.8728619 C22.3786999,49.8881797 22.2210907,49.8966045 22.0208432,49.8966045 C21.5312649,49.8966045 21.1764538,49.7212152 20.9548872,49.3719683 C20.8391548,49.1866224 20.7576854,48.9246873 20.7104787,48.5861629 C20.4203864,48.9668113 20.0046636,49.2976768 19.4625488,49.5779934 C18.9196726,49.8590758 18.3227372,50 17.6694585,50 C16.8852194,50 16.244123,49.7602757 15.7469306,49.2815931 C15.2497383,48.8029104 15,48.2032167 15,47.4848098 C15,46.6967067 15.2451699,46.0847587 15.7347483,45.6512637 C16.2243266,45.2177687 16.8669458,44.9504723 17.6618445,44.8501404 L19.9285238,44.5644626 Z" id="Fill-1" fill="#006AB3"></path>
                <path d="M24.3529412,47.0243593 C24.3951735,47.4978432 24.515083,47.860949 24.7119155,48.1136767 C25.0746606,48.5711748 25.7021116,48.8003045 26.5965309,48.8003045 C27.1282051,48.8003045 27.5965309,48.6868815 28.0015083,48.4569906 C28.4057315,48.2278609 28.6078431,47.8738899 28.6078431,47.3943162 C28.6078431,47.0319716 28.4464555,46.7556458 28.1229261,46.5661 C27.9162896,46.4503933 27.5082956,46.3156559 26.8989442,46.1634103 L25.7624434,45.8794722 C25.0361991,45.7005836 24.5007541,45.4996194 24.1568627,45.2788632 C23.5414781,44.894443 23.23454,44.3631058 23.23454,43.6840903 C23.23454,42.8848008 23.5233786,42.2362345 24.1025641,41.7421974 C24.6809955,41.2473991 25.459276,41 26.4366516,41 C27.7156863,41 28.638009,41.3730018 29.2036199,42.121289 C29.5573152,42.5947729 29.7292609,43.105557 29.7187029,43.65288 L28.3891403,43.65288 C28.361991,43.3331642 28.2473605,43.0431363 28.0452489,42.7812738 C27.714178,42.4097945 27.1395173,42.2240548 26.3235294,42.2240548 C25.7790347,42.2240548 25.3665158,42.3252981 25.0859729,42.5308297 C24.806184,42.7356001 24.6659125,43.0058361 24.6659125,43.3400152 C24.6659125,43.7084496 24.8499246,44.0007612 25.2179487,44.2222786 C25.4306184,44.3532098 25.7443439,44.4696777 26.1591252,44.5686374 L27.107089,44.7977671 C28.138009,45.0451662 28.8280543,45.2841918 29.178733,45.5163664 C29.7262443,45.8794722 30,46.4503933 30,47.2291297 C30,47.9819843 29.7134238,48.6320731 29.1410256,49.1793961 C28.5678733,49.7274803 27.6960784,50 26.5233786,50 C25.2616893,50 24.3687783,49.7153007 23.8431373,49.1443796 C23.3182504,48.5734585 23.0369532,47.8655164 23,47.0243593 L24.3529412,47.0243593 Z" id="Fill-3" fill="#006AB3"></path>
                <path d="M37.9347102,48.4276232 C38.2347007,48.6650498 38.5902732,48.784529 39.0006662,48.784529 C39.5009042,48.784529 39.9851528,48.6673475 40.4541734,48.4352821 C41.2437423,48.0492724 41.638146,47.4174113 41.638146,46.5396987 L41.638146,45.3893286 C41.4653088,45.5011488 41.2414581,45.5945877 40.9688779,45.6681134 C40.6955363,45.7431708 40.4275245,45.7952515 40.1648425,45.8266531 L39.3059865,45.9384733 C38.791282,46.0074036 38.4037308,46.1153944 38.1440944,46.2639775 C37.7047682,46.5121266 37.4847245,46.9080929 37.4847245,47.4526423 C37.4847245,47.8646924 37.6347197,48.1894307 37.9347102,48.4276232 L37.9347102,48.4276232 Z M40.9277624,44.5644626 C41.2544018,44.5215726 41.4729228,44.3852438 41.5833254,44.1516467 C41.6465214,44.0245086 41.6777387,43.8422262 41.6777387,43.6025019 C41.6777387,43.1130968 41.5056629,42.7584886 41.1615114,42.5379117 C40.8173599,42.3165688 40.3247359,42.2070462 39.6844009,42.2070462 C38.9435614,42.2070462 38.417436,42.4084759 38.1083087,42.8136329 C37.9347102,43.0372734 37.8220234,43.3696707 37.7687256,43.8115905 L36.4423718,43.8115905 C36.4682593,42.7600204 36.8063196,42.0285933 37.4557914,41.6157774 C38.1052632,41.2044932 38.858285,41 39.7156182,41 C40.7092415,41 41.5170838,41.1899413 42.1368611,41.5713556 C42.75207,41.95277 43.0596745,42.5455706 43.0596745,43.3505234 L43.0596745,48.2522339 C43.0596745,48.400817 43.0901304,48.5195303 43.1510422,48.6091396 C43.2111925,48.698749 43.3391073,48.7447026 43.5340249,48.7447026 C43.5972209,48.7447026 43.6680308,48.7401072 43.7472161,48.7316824 C43.82564,48.7240235 43.9101551,48.7125351 44,48.6964514 L44,49.7526168 C43.7784334,49.8161859 43.6101647,49.8560123 43.4944323,49.8728619 C43.3786999,49.8881797 43.2203293,49.8966045 43.0208432,49.8966045 C42.5312649,49.8966045 42.1756924,49.7212152 41.9541258,49.3719683 C41.8383935,49.1866224 41.756924,48.9246873 41.7097173,48.5861629 C41.419625,48.9668113 41.0039022,49.2976768 40.4617874,49.5779934 C39.9196726,49.8590758 39.3219758,50 38.6694585,50 C37.884458,50 37.2433616,49.7602757 36.7461692,49.2815931 C36.2489769,48.8029104 36,48.2032167 36,47.4848098 C36,46.6967067 36.2451699,46.0847587 36.7347483,45.6512637 C37.2243266,45.2177687 37.8661844,44.9504723 38.6618445,44.8501404 L40.9277624,44.5644626 Z" id="Fill-5" fill="#006AB3"></path>
                <path d="M50.4737986,45.6612723 C50.5087511,46.3611976 50.6584394,46.9276111 50.9213435,47.3645587 C51.422837,48.1818125 52.3057695,48.5904394 53.5709007,48.5904394 C54.1377403,48.5904394 54.6536708,48.5006224 55.1202117,48.3209884 C56.0206204,47.974667 56.4712047,47.3532304 56.4712047,46.458297 C56.4712047,45.7866924 56.2804852,45.3084775 55.8982864,45.0228433 C55.5115286,44.7436823 54.9059372,44.5001245 54.0815123,44.292979 L52.5625949,43.9159094 C51.5694858,43.6699241 50.867395,43.3980456 50.4548026,43.1018922 C49.7428338,42.5864559 49.3864695,41.8177518 49.3864695,40.7933524 C49.3864695,39.6856094 49.7367551,38.7769202 50.4373263,38.0656666 C51.1371377,37.3552222 52.1294869,37 53.4128543,37 C54.5936435,37 55.5966305,37.3123366 56.422575,37.9353915 C57.2485196,38.5600647 57.661112,39.5569526 57.661112,40.9268642 L56.1877849,40.9268642 C56.1118011,40.267397 55.9507153,39.7616706 55.7037677,39.4080667 C55.245585,38.7655919 54.4675103,38.4435454 53.3695435,38.4435454 C52.4828119,38.4435454 51.8453073,38.6506909 51.4570297,39.0649819 C51.069512,39.4784638 50.8757532,39.9591062 50.8757532,40.5077182 C50.8757532,41.1121623 51.1052245,41.5547741 51.5634071,41.8347442 C51.8635434,42.013569 52.5428391,42.237707 53.6020541,42.5063488 L55.17492,42.8996016 C55.933239,43.0897548 56.5190745,43.3511142 56.9309071,43.6804432 C57.6436357,44.2573758 58,45.0932404 58,46.1896552 C58,47.555521 57.5456165,48.5313706 56.6360897,49.1180132 C55.7265629,49.7062741 54.6696274,50 53.466043,50 C52.0611014,50 50.9623748,49.6083655 50.1683435,48.8250965 C49.3735523,48.0474916 48.9845149,46.9931532 49.0004715,45.6612723 L50.4737986,45.6612723 Z" id="Fill-7" fill="#006AB3"></path>
                <path d="M65.4779288,44.764806 C65.4176173,44.1452519 65.2795358,43.6505276 65.0613034,43.2806331 C64.6589624,42.5913887 63.9868069,42.2475323 63.046424,42.2475323 C62.3703006,42.2475323 61.8052773,42.4841729 61.3481797,42.9589857 C60.8910822,43.4322668 60.6490428,44.0349728 60.6220613,44.764806 L65.4779288,44.764806 Z M64.9470291,41.425034 C65.5303045,41.7091559 65.9747049,42.0752212 66.2810237,42.5255276 C66.5746454,42.9536249 66.7706577,43.4544758 66.8690606,44.0265487 C66.9563535,44.4186521 67,45.0428012 67,45.9005276 L60.5887313,45.9005276 C60.6157127,46.7659122 60.8252158,47.4612832 61.2172404,47.9843431 C61.609265,48.507403 62.2163476,48.7693159 63.0384882,48.7693159 C63.806666,48.7693159 64.4185101,48.5211879 64.8764012,48.0264636 C65.1319314,47.7392784 65.3128658,47.4061436 65.419998,47.0293567 L66.8769963,47.0293567 C66.8389049,47.3418142 66.7103462,47.6894997 66.4944946,48.073179 C66.2770558,48.4576242 66.0358099,48.7708475 65.7691697,49.0151464 C65.3223887,49.4386487 64.7692689,49.7243022 64.1106041,49.8728727 C63.756671,49.9571137 63.3559171,50 62.9099296,50 C61.818768,50 60.8950501,49.614789 60.1371888,48.8436011 C59.3793274,48.073179 59,46.9948945 59,45.6079816 C59,44.2402144 59.3817082,43.1320626 60.1451245,42.2789312 C60.9093344,41.4265657 61.9068545,41 63.1392719,41 C63.7606388,41 64.3637536,41.141678 64.9470291,41.425034 L64.9470291,41.425034 Z" id="Fill-9" fill="#006AB3"></path>
                <path d="M69,41.1973232 L70.3126041,41.1973232 L70.3126041,42.7188518 C70.4199519,42.4224707 70.6835092,42.0619001 71.103276,41.6371401 C71.5230428,41.21238 72.0072182,41 72.555062,41 C72.5802332,41 72.6239126,41.0031699 72.6861003,41.0087171 C72.7468073,41.0142643 72.8519341,41.0245663 73,41.0420005 L73,42.6031522 C72.9178234,42.5865105 72.8423098,42.575416 72.7734592,42.5698688 C72.7046086,42.565114 72.6290949,42.5619442 72.5469184,42.5619442 C71.8510087,42.5619442 71.3157505,42.8012679 70.9426245,43.2815004 C70.5687581,43.7609404 70.3814547,44.313287 70.3814547,44.9369552 L70.3814547,50 L69,50 L69,41.1973232 Z" id="Fill-11" fill="#006AB3"></path>
                <polygon id="Fill-13" fill="#006AB3" points="74.6883522 41 77 48.3276918 79.4082587 41 81 41 77.7417219 50 76.1912739 50 73 41"></polygon>
                <mask id="mask-2" fill="white">
                    <use xlink:href="#path-1"></use>
                </mask>
                <g id="Clip-16"></g>
                <path d="M81,50 L83,50 L83,41.2919866 L81,41.2919866 L81,50 Z M81,39.6664698 L83,39.6664698 L83,38 L81,38 L81,39.6664698 Z" id="Fill-15" fill="#006AB3" mask="url(#mask-2)"></path>
                <path d="M90.808958,41.6984937 C91.468405,42.1649221 91.865419,42.9668113 92,44.106459 L90.4733467,44.106459 C90.3799811,43.5818228 90.1671749,43.146796 89.8366102,42.7990809 C89.5043634,42.4521317 88.9719272,42.2790401 88.2393019,42.2790401 C87.2391967,42.2790401 86.5242351,42.7232576 86.0935759,43.6116926 C85.8143203,44.1876436 85.6746925,44.8999234 85.6746925,45.7454685 C85.6746925,46.5971407 85.8723583,47.3140158 86.2685312,47.8960939 C86.6630218,48.4781721 87.2863001,48.7684452 88.1350016,48.7684452 C88.7860372,48.7684452 89.3024919,48.5876947 89.6835243,48.2261935 C90.0645568,47.8654583 90.3278309,47.3706919 90.4733467,46.7434261 L92,46.7434261 C91.8250447,47.8715854 91.3884975,48.6964514 90.6903585,49.218024 C89.9930607,49.7395966 89.0997792,50 88.0130375,50 C86.7917149,50 85.8168437,49.5940771 85.0901062,48.7806995 C84.3633687,47.9680878 84,46.9517488 84,45.734746 C84,44.2404902 84.3978551,43.0786316 85.1952476,42.2476385 C85.9909578,41.4158795 87.0062033,41 88.2393019,41 C89.2923983,41 90.14867,41.2328312 90.808958,41.6984937" id="Fill-17" fill="#006AB3" mask="url(#mask-2)"></path>
                <path d="M98.4777778,44.764806 C98.4174603,44.1452519 98.2793651,43.6505276 98.0611111,43.2806331 C97.6587302,42.5913887 96.9865079,42.2475323 96.0460317,42.2475323 C95.3698413,42.2475323 94.8047619,42.4841729 94.347619,42.9589857 C93.8904762,43.4322668 93.6484127,44.0349728 93.6214286,44.764806 L98.4777778,44.764806 Z M97.9468254,41.425034 C98.5309524,41.7091559 98.9746032,42.0752212 99.2809524,42.5255276 C99.5753968,42.9536249 99.7714286,43.4544758 99.8698413,44.0265487 C99.9571429,44.4186521 100,45.0428012 100,45.9005276 L93.5880952,45.9005276 C93.615873,46.7659122 93.8246032,47.4612832 94.2166667,47.9843431 C94.6087302,48.507403 95.2166667,48.7693159 96.0380952,48.7693159 C96.8063492,48.7693159 97.418254,48.5211879 97.8761905,48.0264636 C98.131746,47.7392784 98.3134921,47.4061436 98.4198413,47.0293567 L99.8769841,47.0293567 C99.8388889,47.3418142 99.7111111,47.6894997 99.4944444,48.073179 C99.2777778,48.4576242 99.0357143,48.7708475 98.7690476,49.0151464 C98.3222222,49.4386487 97.7690476,49.7243022 97.1103175,49.8728727 C96.7563492,49.9571137 96.3555556,50 95.9095238,50 C94.8190476,50 93.8944444,49.614789 93.1365079,48.8436011 C92.3785714,48.073179 92,46.9948945 92,45.6079816 C92,44.2402144 92.381746,43.1320626 93.1452381,42.2789312 C93.9087302,41.4265657 94.9063492,41 96.1388889,41 C96.7603175,41 97.3634921,41.141678 97.9468254,41.425034 L97.9468254,41.425034 Z" id="Fill-18" fill="#006AB3" mask="url(#mask-2)"></path>
                <path d="M111.863769,30.0004173 L111.726703,30.0004173 C111.726703,31.5110586 110.508149,32.7262484 109.002925,32.7262484 C107.492687,32.7262484 106.273297,31.5110586 106.273297,30.0004173 C106.273297,28.4939491 107.492687,27.2762554 109.002925,27.2737516 C110.508149,27.2762554 111.72336,28.4939491 111.726703,30.0004173 L111.863769,30.0004173 L112,30.0004173 C112,28.3445542 110.658588,27 109.002925,27 C107.341412,27 106.002507,28.3445542 106,30.0004173 C106.002507,31.6612881 107.341412,32.9966616 109.002925,33 C110.657752,32.9966616 111.996657,31.6612881 112,30.0004173 L111.863769,30.0004173 Z" id="Fill-19" fill="#006AB3" mask="url(#mask-2)"></path>
                <path d="M109.304476,28.3243871 L110.023195,28.3243871 C110.187194,28.3243871 110.31199,28.3669677 110.389742,28.4645161 C110.467494,28.5597419 110.504737,28.6781935 110.504737,28.8190968 L110.443973,29.0877419 C110.40477,29.1620645 110.349886,29.2286452 110.26952,29.2627097 C110.192421,29.3045161 110.08592,29.3261935 109.95067,29.3261935 L109.304476,29.3261935 L109.304476,28.3243871 Z M109.304476,31 L109.304476,29.6691613 L109.647501,29.6691613 L109.81542,29.6869677 L109.95851,29.7636129 C109.999673,29.7945806 110.051944,29.8627097 110.102908,29.9587097 C110.164979,30.060129 110.236197,30.1940645 110.32375,30.3729032 L110.628226,31 L111,31 L110.608625,30.184 C110.531526,30.0190968 110.443973,29.8874839 110.359686,29.7775484 C110.31787,29.7326452 110.259719,29.6869677 110.1787,29.635871 C110.396276,29.5994839 110.558968,29.5003871 110.656975,29.3579355 C110.763476,29.2077419 110.81248,29.0289032 110.81248,28.8190968 C110.81248,28.6565161 110.790265,28.500129 110.728193,28.3654194 C110.656975,28.2283871 110.574649,28.1300645 110.469454,28.0820645 C110.36622,28.0286452 110.207449,28 110.008167,28 L109,28 L109,31 L109.304476,31 Z" id="Fill-20" fill="#006AB3" mask="url(#mask-2)"></path>
                <polygon id="Fill-21" fill="#006AB3" mask="url(#mask-2)" points="104.106849 14 96.5409053 14 94.1418894 14 88.5314923 14 86.9472216 18.9203244 85.3637441 14 79.7517605 14 77.3527445 14 69.7868005 14 64.6611253 14 53.2261334 14 50.9072433 14 45.6601893 14 44.1322447 14 42.4892678 14 35.8475478 14 26 14 26 19.2223372 35.8189881 19.2223372 42.4892678 19.2223372 44.1179648 19.2223372 45.6601893 19.2223372 49.6593425 19.2223372 53.2261334 19.2223372 67.0934609 19.2223372 69.7868005 19.2223372 77.3527445 19.2223372 79.6280017 19.2223372 82.0167044 25.235355 82.2396288 25.80974 82.7663969 27.1756067 84.78303 32.3979439 86.9472216 38 89.1106199 32.3979439 91.1280463 27.1756067 91.1240797 27.1756067 91.6508477 25.80974 91.6556077 25.80974 93.6730341 20.5882039 93.6666875 20.5882039 94.1934555 19.2223372 94.2005954 19.2223372 96.5409053 19.2223372 104.106849 19.2223372 111.926658 19.2223372 115 14"></polygon>
                <path d="M18.9726157,14 L10.4717509,14 L3.03183166,14 L0,19 L10.4858343,19 L19,19 C18.7371109,18.2000307 18.5915829,17.3479061 18.5915829,16.4620341 C18.5915829,15.6045406 18.7253747,14.7777266 18.9726157,14" id="Fill-22" fill="#006AB3" mask="url(#mask-2)"></path>
                <polygon id="Fill-23" fill="#006AB3" mask="url(#mask-2)" points="79.5245642 6 82 6 80.322504 1 79.8993661 1 76.5570523 1 69 1 69 6 76.5570523 6"></polygon>
                <path d="M32.4853746,0.896551724 C30.765657,0.318965517 28.9211725,0 27.0003973,0 C25.0788275,0 23.2335483,0.318965517 21.5146254,0.896551724 C18.5424703,1.89498433 15.9477947,3.68025078 14,6 L40,6 C38.0514106,3.68025078 35.4575297,1.89498433 32.4853746,0.896551724" id="Fill-24" fill="#006AB3" mask="url(#mask-2)"></path>
                <polygon id="Fill-25" fill="#006AB3" mask="url(#mask-2)" points="79.3443396 8 76.4976415 8 69 8 69 13 76.4976415 13 78.9724843 13 84 13 82.3341195 8"></polygon>
                <polygon id="Fill-26" fill="#006AB3" mask="url(#mask-2)" points="93.6551182 8 90.666754 8 89 13 94.0277792 13 96.5019655 13 104 13 104 8 96.5019655 8"></polygon>
                <path d="M27.4556091,8.53305722 C30.0634761,8.53305722 32.3941977,9.67587053 33.9514532,11.4713913 L41,8 L13.2886336,8 C12.2435809,9.50789998 11.4605855,11.1937414 11,13 L19.913124,13 C21.3234687,10.3485197 24.1687755,8.53305722 27.4556091,8.53305722" id="Fill-27" fill="#006AB3" mask="url(#mask-2)"></path>
                <polygon id="Fill-28" fill="#006AB3" mask="url(#mask-2)" points="69 26 77 26 77 21 69 21"></polygon>
                <path d="M27.1643929,25.3917779 C23.9616595,25.3917779 21.1837706,23.6108299 19.7827212,21 L11,21 C11.4623307,22.8085596 12.2432947,24.495168 13.2819768,26 L40.7172422,26 C41.7567053,24.495168 42.5376693,22.8085596 43,21 L34.5452837,21 C33.1457962,23.6108299 30.3671263,25.3917779 27.1643929,25.3917779" id="Fill-29" fill="#006AB3" mask="url(#mask-2)"></path>
                <polygon id="Fill-30" fill="#006AB3" mask="url(#mask-2)" points="69 32 77 32 77 27 69 27"></polygon>
                <path d="M21.7387512,32.174494 C23.3949446,32.7078979 25.1621364,33 27.0003993,33 C28.8378636,33 30.6050554,32.7078979 32.2612488,32.174494 C35.3196966,31.1926181 37.9940416,29.3780923 40,27 L14,27 C16.0059584,29.3780923 18.6795049,31.1926181 21.7387512,32.174494" id="Fill-31" fill="#006AB3" mask="url(#mask-2)"></path>
                <polygon id="Fill-32" fill="#006AB3" mask="url(#mask-2)" points="96.4420263 1 93.1000975 1 92.6777006 1 91 6 93.4749451 6 96.4420263 6 104 6 104 1"></polygon>
                <polygon id="Fill-33" fill="#006AB3" mask="url(#mask-2)" points="96 26 104 26 104 21 96 21"></polygon>
                <polygon id="Fill-34" fill="#006AB3" mask="url(#mask-2)" points="96 32 104 32 104 27 96 27"></polygon>
                <path d="M52.3832101,6 L65,6 C63.9209274,3.08461302 61.0916515,1 57.7592213,1 L52.3832101,1 L50.1205635,1 L45,1 L45,6 L50.1205635,6 L52.3832101,6 Z" id="Fill-35" fill="#006AB3" mask="url(#mask-2)"></path>
                <path d="M56,8.07055215 C57.6082588,8.35736196 58.8099043,9.49923313 58.8099043,10.8949387 C58.8099043,11.7231595 58.3850961,12.4670245 57.7047702,13 L64.9929594,13 C65.6313583,11.9018405 66,10.6395706 66,9.29141104 C66,8.85122699 65.9525354,8.42101227 65.8773831,8 L56,8 L56,8.07055215 Z" id="Fill-36" fill="#006AB3" mask="url(#mask-2)"></path>
                <polygon id="Fill-37" fill="#006AB3" mask="url(#mask-2)" points="51.4273433 13 53 13 53 8 51.4273433 8 50.548333 8 45 8 45 13 50.548333 13"></polygon>
                <polygon id="Fill-38" fill="#006AB3" mask="url(#mask-2)" points="53 26 53 21 49.2289788 21 45 21 45 26 49.2289788 26"></polygon>
                <path d="M59.7479393,21 C60.1408212,21.5246203 60.3750096,22.167357 60.3750096,22.8668507 C60.3750096,24.3187605 59.3696942,25.5382727 58,25.9125633 L58,26 L67.6926277,26 C67.8859872,25.3005062 68,24.5687989 68,23.810247 C68,22.8238994 67.8158848,21.8805031 67.4954164,21 L59.7479393,21 Z" id="Fill-39" fill="#006AB3" mask="url(#mask-2)"></path>
                <path d="M49.0433039,27 L45,27 L45,32 L52.648757,32 L58.6303128,32 C62.3560545,32 65.5565357,29.946004 67,27 L52.648757,27 L49.0433039,27 Z" id="Fill-40" fill="#006AB3" mask="url(#mask-2)"></path>
            </g>
        </g>
    </g>
</svg>